<svg xmlns="http://www.w3.org/2000/svg" width="15" height="15" viewBox="0 0 15 15">
    <path fill="#000" fill-rule="nonzero" d="M11.993 9.646c-.515-.509-1.159-.509-1.67 0-.391.387-.782.775-1.166 1.169-.105.108-.194.13-.322.059-.252-.138-.522-.25-.765-.4-1.132-.713-2.08-1.629-2.921-2.66-.417-.512-.788-1.06-1.047-1.677-.053-.125-.043-.207.059-.309.39-.377.771-.765 1.155-1.152.535-.538.535-1.169-.003-1.71-.305-.309-.61-.61-.916-.92-.315-.314-.627-.633-.945-.945C2.936.6 2.293.6 1.78 1.105c-.394.387-.771.784-1.172 1.165-.37.351-.558.781-.597 1.283-.063.818.137 1.59.42 2.341.578 1.556 1.457 2.938 2.524 4.205a15.621 15.621 0 0 0 5.174 4.048c.906.44 1.844.777 2.865.833.703.04 1.313-.138 1.802-.686.335-.374.713-.715 1.067-1.073.526-.532.529-1.175.007-1.7-.624-.628-1.25-1.251-1.878-1.875z"/>
</svg>
